# xmcd CD database file
#
# Track frame offsets:
#	150
#	13327
#	27423
#	37094
#	50175
#	63052
#	77600
#	92511
#	107037
#	120785
#	134556
#	148673
#	162411
#	174291
#
# Disc length: 2524 seconds
#
# Revision: 3
# Processed by: cddbd v1.5.2PL0 Copyright (c) Steve Scherf et al.
# Submitted via: CDex 1.51
#
DISCID=b909da0e
DTITLE=Billie Holiday - Summertime  [CD 1-3]
DYEAR=2000
DGENRE=Jazz
TTITLE0=Summertime
TTITLE1=Carelessly
TTITLE2=I'm gonna lock my heart
TTITLE3=I've got my love to keep me warm
TTITLE4=A fine romance
TTITLE5=Who loves you
TTITLE6=Those foolish things
TTITLE7=If you were mine
TTITLE8=Let's call a heart to heart
TTITLE9=Twenty four hours a day
TTITLE10=Mean to me
TTITLE11=Miss Brown to you
TTITLE12=He's funny that way
TTITLE13=Loverman
EXTD=YEAR: 2000
EXTT0=
EXTT1=
EXTT2=
EXTT3=
EXTT4=
EXTT5=
EXTT6=
EXTT7=
EXTT8=
EXTT9=
EXTT10=
EXTT11=
EXTT12=
EXTT13=
PLAYORDER=
